<svg id='Shopping_Jewelry_Diamond_2_24' width='24' height='24' viewBox='0 0 24 24' xmlns='http://www.w3.org/2000/svg' xmlns:xlink='http://www.w3.org/1999/xlink'><rect width='24' height='24' stroke='none' fill='#000000' opacity='0'/>


<g transform="matrix(1.43 0 0 1.43 12 12)" >
<g style="" >
<g transform="matrix(1 0 0 1 0 0)" >
<path style="stroke: none; stroke-width: 1; stroke-dasharray: none; stroke-linecap: butt; stroke-dashoffset: 0; stroke-linejoin: miter; stroke-miterlimit: 4; fill: rgb(255,185,170); fill-rule: nonzero; opacity: 1;" transform=" translate(-7, -7)" d="M 10.6384 1.53394 L 3.36162 1.53394 C 3.19386 1.53854 3.02954 1.58256 2.88194 1.66244 C 2.73434 1.74232 2.60762 1.85581 2.512 1.99373 L 0.692814 4.51261 C 0.557731 4.7035 0.490269 4.93403 0.501134 5.16763 C 0.511999 5.40123 0.600569 5.62451 0.752787 5.80203 L 6.21035 12.0892 C 6.30379 12.2096 6.42351 12.307 6.56037 12.3741 C 6.69723 12.4411 6.84761 12.4759 7 12.4759 C 7.15239 12.4759 7.30277 12.4411 7.43963 12.3741 C 7.57649 12.307 7.69621 12.2096 7.78965 12.0892 L 13.2472 5.80203 C 13.3994 5.62451 13.488 5.40123 13.4989 5.16763 C 13.5097 4.93403 13.4423 4.7035 13.3072 4.51261 L 11.488 1.99373 C 11.3924 1.85581 11.2657 1.74232 11.1181 1.66244 C 10.9705 1.58256 10.8061 1.53854 10.6384 1.53394 L 10.6384 1.53394 Z" stroke-linecap="round" />
</g>
<g transform="matrix(1 0 0 1 0 0)" >
<path style="stroke: rgb(234,86,61); stroke-width: 1; stroke-dasharray: none; stroke-linecap: round; stroke-dashoffset: 0; stroke-linejoin: round; stroke-miterlimit: 4; fill: none; fill-rule: nonzero; opacity: 1;" transform=" translate(-7, -7)" d="M 10.6384 1.534 L 3.36162 1.534 C 3.19386 1.5386 3.02954 1.58262 2.88194 1.6625 C 2.73434 1.74238 2.60762 1.85587 2.512 1.99379 L 0.692814 4.51267 C 0.557731 4.70356 0.490269 4.93409 0.501134 5.16769 C 0.511999 5.40129 0.600569 5.62457 0.752787 5.80209 L 6.21035 12.0893 C 6.30379 12.2097 6.42351 12.3071 6.56037 12.3741 C 6.69723 12.4412 6.84761 12.476 7 12.476 C 7.15239 12.476 7.30277 12.4412 7.43963 12.3741 C 7.57649 12.3071 7.69621 12.2097 7.78965 12.0893 L 13.2472 5.80209 C 13.3994 5.62457 13.488 5.40129 13.4989 5.16769 C 13.5097 4.93409 13.4423 4.70356 13.3072 4.51267 L 11.488 1.99379 C 11.3924 1.85587 11.2657 1.74238 11.1181 1.6625 C 10.9705 1.58262 10.8061 1.5386 10.6384 1.534 L 10.6384 1.534 Z" stroke-linecap="round" />
</g>
<g transform="matrix(1 0 0 1 -1.48 -0.01)" >
<path style="stroke: rgb(234,86,61); stroke-width: 1; stroke-dasharray: none; stroke-linecap: round; stroke-dashoffset: 0; stroke-linejoin: round; stroke-miterlimit: 4; fill: none; fill-rule: nonzero; opacity: 1;" transform=" translate(-5.52, -6.99)" d="M 6.48023 1.52399 L 4.04132 5.3023 L 7 12.4491" stroke-linecap="round" />
</g>
<g transform="matrix(1 0 0 1 1.49 -0.01)" >
<path style="stroke: rgb(234,86,61); stroke-width: 1; stroke-dasharray: none; stroke-linecap: round; stroke-dashoffset: 0; stroke-linejoin: round; stroke-miterlimit: 4; fill: none; fill-rule: nonzero; opacity: 1;" transform=" translate(-8.49, -6.99)" d="M 7.54975 1.52399 L 9.97867 5.3023 L 7 12.4491" stroke-linecap="round" />
</g>
<g transform="matrix(1 0 0 1 0 -1.7)" >
<path style="stroke: rgb(234,86,61); stroke-width: 1; stroke-dasharray: none; stroke-linecap: round; stroke-dashoffset: 0; stroke-linejoin: round; stroke-miterlimit: 4; fill: none; fill-rule: nonzero; opacity: 1;" transform=" translate(-7, -5.3)" d="M 0.522949 5.30225 L 13.4772 5.30225" stroke-linecap="round" />
</g>
</g>
</g>
</svg>